<?xml version="1.0" encoding="UTF-8"?><svg id="Layer_2" xmlns="http://www.w3.org/2000/svg" viewBox="0 0 439.47 480.19"><defs><style>.cls-1,.cls-2{fill:#1a171b;}.cls-2,.cls-3{fill-rule:evenodd;}.cls-3{fill:#f29322;}</style></defs><g id="Layer_1-2"><path class="cls-3" d="M0,21.32v244.22c0,13.88,5.8,33.66,10.51,43.4,1.66,3.44,2.26,5.84,4.05,9.17,1.63,3.02,3.16,5.51,4.82,8.41,15.33,26.8,34.51,44.78,56.16,64.9,15.33,14.25,30.09,23.61,46.11,35.27,13.51,9.83,85.29,53.49,96.06,53.49,11.48,0,27.35-10.66,40.7-17.29,3.3-1.64,5.16-2.99,8.47-4.76l58.26-36.34c33.56-22.28,73.9-60.1,94.19-94.01,10.35-17.29,20.14-41.03,20.14-62.26V21.32C388.62,14.13,304.6,.19,219.74,0,137.61-.18,55.35,13.33,0,21.32"/><path class="cls-1" d="M17.84,262.19V37.51l12.58-1.9c49.26-7.44,119.33-18.03,189.31-17.87,67.47,.15,134.33,9.92,180.38,16.64,6.54,.96,12.69,1.85,17.52,2.54l4,.57v224.71c0,9.17-1.92,18.8-4.93,28.1-3.54,10.95-8.61,21.45-13.83,30.16-8.88,14.82-21.87,30.41-36.34,44.85-15.89,15.85-33.6,30.38-49.64,41.02l-52.42,32.7-.27,.15c-1.02,.54-2.13,1.2-3.19,1.83-1.36,.81-2.67,1.59-4.54,2.51-2.95,1.47-5.92,3.08-8.92,4.72-10.13,5.52-20.72,11.29-29.66,11.29-4.75,0-18.26-6.59-33.49-15.08-21.88-12.19-48.09-28.49-55.45-33.85-2.69-1.95-6.4-4.58-10.09-7.19-10.73-7.59-21.03-14.87-31.74-24.82-9.8-9.11-19.04-17.74-27.6-27.15-8.67-9.54-16.62-19.85-23.68-32.2l-1.46-2.54c-1.03-1.75-2.03-3.47-2.92-5.12-1.01-1.88-1.63-3.43-2.27-5.02v-.02c-.41-1.02-.83-2.07-1.46-3.38-2.42-5-5.13-12.76-7.09-20.87-1.67-6.89-2.82-14.07-2.82-20.11M27.1,45.47v216.72c0,5.34,1.03,11.76,2.53,17.94,1.8,7.45,4.27,14.52,6.44,19.02,.68,1.4,1.2,2.71,1.71,3.98,.54,1.33,1.05,2.61,1.84,4.08,1.04,1.93,1.88,3.36,2.74,4.83l1.53,2.61c6.7,11.72,14.25,21.51,22.49,30.57,8.34,9.18,17.43,17.66,27.06,26.61,10.24,9.52,20.29,16.62,30.77,24.03,2.98,2.1,6.01,4.25,10.19,7.29,7.14,5.2,32.86,21.18,54.51,33.23,14.03,7.81,25.99,13.88,29.01,13.88,6.65,0,16.15-5.18,25.25-10.13,3.2-1.74,6.35-3.46,9.25-4.9,1.47-.73,2.67-1.44,3.92-2.18,.92-.54,1.86-1.1,3.28-1.87l52.29-32.62c15.53-10.32,32.71-24.41,48.13-39.8,13.97-13.94,26.47-28.91,34.93-43.05,4.9-8.18,9.65-18.02,12.96-28.24,2.72-8.41,4.46-17.09,4.46-25.28V45.49l-13.56-1.97c-45.85-6.69-112.42-16.41-179.08-16.57-69.11-.16-138.88,10.39-187.94,17.8l-4.7,.71Z"/><path class="cls-2" d="M162.14,389.77c19.18,12.34,49.3,30.51,55.98,30.51,9.91,0,40.65-18.76,59.9-31.16,.89-.57,1.2-1.71,.73-2.65-.47-.95-1.56-1.39-2.56-1.03-19.45,7.02-38.83,15.76-58.57,15.76-18.48,0-35.97-8.19-53.62-15.08-.99-.39-2.11,.04-2.59,.98-.49,.95-.18,2.1,.72,2.68"/><path class="cls-1" d="M91.69,84.24H224.31v32.4h-86.65v22.89h62.06c-1.36,1.12-2.67,2.3-3.91,3.56-6.41,6.47-10.26,14.17-11.44,22.86h-46.71v44.38h-45.97V84.24Z"/><path class="cls-1" d="M271.7,263.07c-15.15,0-30.09-2.02-44.82-6.08-14.74-4.05-26.33-9.36-34.78-15.94l15.85-27.3c7.4,5.87,17.26,10.68,29.59,14.44,12.33,3.76,24.48,5.64,36.46,5.64,8.92,0,16-.97,21.22-2.91,5.22-1.94,7.84-4.55,7.84-7.84,0-2.7-2.17-4.93-6.52-6.69-4.34-1.76-11.27-3.17-20.78-4.23l-23.25-2.64c-19.96-2.11-34.43-6.13-43.41-12.06-8.98-5.93-13.47-14.47-13.47-25.62,0-8.92,3.14-16.55,9.42-22.89,6.28-6.34,15.12-11.18,26.51-14.53,11.39-3.35,24.6-5.02,39.63-5.02,13.15,0,25.65,1.47,37.51,4.4,11.86,2.94,21.72,6.93,29.59,11.98l-12.86,26.42c-6.81-4.46-14.97-8.04-24.48-10.74-9.51-2.7-19.02-4.05-28.53-4.05s-17.08,1-23.07,2.99c-5.99,2-9.04,4.7-9.16,8.1,0,2.35,1.88,4.29,5.64,5.81,3.76,1.53,9.63,2.7,17.61,3.52l23.42,2.47c21.37,2.23,36.87,6.43,46.49,12.59,9.63,6.16,14.44,14.94,14.44,26.33,0,8.57-3.11,16.17-9.33,22.81-6.22,6.63-15.09,11.8-26.59,15.5-11.51,3.7-24.89,5.55-40.15,5.55"/><path class="cls-1" d="M163.34,220.83c2.21,0,4.46-.44,6.76-1.31l-10.17-6.96c-1.49,.32-2.64,.85-3.45,1.58-.81,.73-1.22,1.56-1.22,2.51,0,1.27,.75,2.28,2.26,3.04,1.51,.76,3.45,1.14,5.81,1.14m3.65-22.82c-1.85,0-3.4,.32-4.65,.97-1.25,.65-1.87,1.48-1.87,2.48,0,1.33,1.15,2.85,3.45,4.57,6.42-.75,9.63-2.32,9.63-4.72,0-1.14-.62-1.97-1.85-2.51-1.23-.54-2.81-.8-4.72-.8Zm26.23,29.15h-12.07l-3.8-2.58c-2.37,1.17-4.89,2.04-7.57,2.6-2.68,.57-5.38,.85-8.1,.85-3.15,0-6.02-.42-8.61-1.27-2.6-.84-4.65-2.04-6.15-3.6-1.51-1.56-2.26-3.34-2.26-5.35,0-2.11,.83-3.98,2.48-5.62,1.65-1.64,3.96-2.88,6.91-3.72-1.72-1.3-2.95-2.51-3.7-3.63-.75-1.12-1.12-2.31-1.12-3.58,0-1.91,.72-3.61,2.17-5.08,1.44-1.48,3.46-2.62,6.03-3.43,2.58-.81,5.54-1.22,8.88-1.22,4.7,0,8.63,.77,11.78,2.31,3.15,1.54,4.74,3.79,4.77,6.74,0,2.37-1.13,4.35-3.38,5.94-2.25,1.59-5.57,2.74-9.95,3.45l8.03,5.6c2.3-1.78,4.09-3.86,5.35-6.23l7.1,4.96c-1.49,2.21-3.44,4.28-5.84,6.23l9.05,6.62Z"/><path class="cls-1" d="M339.15,300.26v-1.53c0-1.42-.46-2.44-1.37-3.06-.91-.62-2.02-.93-3.32-.93s-2.41,.31-3.34,.93c-.93,.62-1.39,1.64-1.39,3.06v11.32c0,1.42,.46,2.44,1.39,3.06,.93,.62,2.04,.93,3.34,.93s2.4-.31,3.32-.93c.91-.62,1.37-1.64,1.37-3.06v-.46h-4.68v-6.82h12.89v7.61c0,3.83-1.24,6.54-3.73,8.12-2.49,1.58-5.54,2.37-9.16,2.37s-6.72-.79-9.21-2.37c-2.49-1.58-3.73-4.28-3.73-8.12v-11.97c0-3.83,1.24-6.54,3.73-8.12,2.49-1.58,5.56-2.37,9.21-2.37s6.67,.79,9.16,2.37c2.49,1.58,3.73,4.28,3.73,8.12v.93l-8.21,.93Zm-20.87-12.11v32.47h-8.21l-11.41-17.9v17.9h-8.21v-32.47h8.21l11.41,17.9v-17.9h8.21Zm-39.29,32.47h8.21v-32.47h-8.21v32.47Zm-2.32-25.65h-7.7v25.65h-8.21v-25.65h-7.7v-6.82h23.61v6.82Zm-21.29,18.83v6.82h-19.16v-32.47h8.21v25.65h10.95Zm-30.61-3.76c0,1.42-.46,2.44-1.37,3.06-.91,.62-2.02,.93-3.32,.93s-2.41-.31-3.34-.93c-.93-.62-1.39-1.64-1.39-3.06v-21.89h-8.21v22.22c0,3.83,1.24,6.54,3.73,8.12,2.49,1.58,5.56,2.37,9.21,2.37s6.67-.79,9.16-2.37c2.49-1.58,3.73-4.28,3.73-8.12v-22.22h-8.21v21.89Zm-44.34,.37l8.21-.93v.84c0,2.47,1.44,3.71,4.31,3.71,2.13,0,3.2-.73,3.2-2.18,0-.74-.27-1.38-.81-1.92-.54-.54-1.66-1.14-3.36-1.79-3.87-1.52-6.6-3.17-8.21-4.96-1.61-1.79-2.41-3.85-2.41-6.17,0-3.28,1.07-5.61,3.22-7,2.15-1.39,4.68-2.09,7.58-2.09,1.79,0,3.54,.27,5.24,.81,1.7,.54,3.13,1.48,4.29,2.81,1.16,1.33,1.74,3.11,1.74,5.33v.93l-8.21,.93c0-1.33-.26-2.33-.79-2.99-.53-.66-1.28-1-2.27-1-1.73,0-2.6,.66-2.6,1.99,0,.74,.29,1.45,.86,2.13,.57,.68,1.62,1.33,3.13,1.95,3.59,1.45,6.29,2.96,8.09,4.52,1.81,1.56,2.71,3.55,2.71,5.96,0,3.74-1.13,6.27-3.39,7.58-2.26,1.31-4.96,1.97-8.12,1.97-1.89,0-3.76-.26-5.64-.79-1.87-.53-3.47-1.45-4.8-2.78-1.33-1.33-1.99-3.12-1.99-5.38v-1.48Zm-2.78-22.26v32.47h-8.21l-11.41-17.9v17.9h-8.21v-32.47h8.21l11.41,17.9v-17.9h8.21Zm-43.97,25.88c-1.3,0-2.41-.31-3.34-.93-.93-.62-1.39-1.64-1.39-3.06v-11.32c0-1.42,.46-2.44,1.39-3.06,.93-.62,2.04-.93,3.34-.93s2.4,.31,3.32,.93c.91,.62,1.37,1.64,1.37,3.06v11.32c0,1.42-.46,2.44-1.37,3.06-.91,.62-2.02,.93-3.32,.93Zm0,6.82c3.62,0,6.67-.79,9.16-2.37,2.49-1.58,3.73-4.28,3.73-8.12v-11.97c0-3.83-1.24-6.54-3.73-8.12-2.49-1.58-5.54-2.37-9.16-2.37s-6.72,.79-9.21,2.37c-2.49,1.58-3.73,4.28-3.73,8.12v11.97c0,3.83,1.24,6.54,3.73,8.12,2.49,1.58,5.56,2.37,9.21,2.37Zm-15.72-11.41v.93c0,3.83-1.24,6.54-3.73,8.12-2.49,1.58-5.54,2.37-9.16,2.37s-6.72-.79-9.21-2.37c-2.49-1.58-3.73-4.28-3.73-8.12v-11.97c0-3.83,1.24-6.54,3.73-8.12,2.49-1.58,5.56-2.37,9.21-2.37s6.67,.79,9.16,2.37c2.49,1.58,3.73,4.28,3.73,8.12v.93l-8.21,.93v-1.53c0-1.42-.46-2.44-1.37-3.06-.91-.62-2.02-.93-3.32-.93s-2.41,.31-3.34,.93c-.93,.62-1.39,1.64-1.39,3.06v11.32c0,1.42,.46,2.44,1.39,3.06,.93,.62,2.04,.93,3.34,.93s2.4-.31,3.32-.93c.91-.62,1.37-1.64,1.37-3.06v-1.53l8.21,.93Z"/></g></svg>