<svg width="111" height="35" viewBox="0 0 111 35" fill="none" xmlns="http://www.w3.org/2000/svg">
<path d="M110.999 16H64V34.7997H110.999V16Z" fill="#202020"/>
<path d="M83.9277 30.8569L84.9834 19.9715H90.5014L91.5571 30.8569H88.6512L88.1506 25.5993L87.9111 28.1356H87.0948L86.8336 30.8569H83.9277ZM87.737 21.3213L87.3561 25.4142H88.1288L87.737 21.3213ZM86.2677 19.6341V19.4164C87.5846 19.4055 88.7491 18.883 89.3369 18.3496L89.6525 18.7524C89.0648 19.2858 88.107 19.7103 86.2677 19.6341Z" fill="white"/>
<path d="M81.0958 30.965C80.4972 30.965 79.9204 30.8561 79.583 30.6602V27.9497C79.8007 28.015 80.0075 28.0586 80.2034 28.0586C80.6605 28.0586 80.987 27.8191 80.987 27.1442V19.9707H83.8167V27.5905C83.8167 29.9417 82.8807 30.965 81.0958 30.965Z" fill="white"/>
<path d="M75.3756 28.1272C75.8489 27.6803 76.1853 27.486 76.7681 27.3655L75.1721 25.648C74.7458 25.6868 74.3311 25.9083 73.936 26.2503L73.4706 25.6752L73.3102 25.477L73.1302 25.2438H73.1263L72.1953 25.7296L72.9738 25.0417L72.9816 25.034C78.6692 19.104 65.7879 17.6507 69.5471 24.6726C69.551 24.6842 69.5471 24.6959 69.5393 24.7037C65.4359 27.4666 70.2277 32.9885 73.717 29.9769L74.3976 30.8512H77.5035L75.3795 28.1272H75.3756ZM71.769 21.9796C71.769 21.9796 72.1875 22.1661 72.1523 22.442C72.1054 22.7918 71.8941 23.1726 71.4873 23.5262C70.8106 22.5781 70.8888 21.5716 71.769 21.9796ZM72.4066 28.2554C71.2526 29.2153 69.7544 27.9329 70.5915 26.7438C70.6619 26.6428 70.7754 26.5068 70.9631 26.3319L72.4105 28.2088C72.4105 28.2088 72.4183 28.2438 72.4066 28.2515V28.2554Z" fill="white"/>
<g clip-path="url(#clip0_7416_3654)">
<path d="M96.5058 28.3338L96.5787 27.6898C96.5787 27.6645 96.5692 27.6359 96.547 27.6232C96.5248 27.6074 96.4963 27.6074 96.4709 27.6232L95.9158 27.9563L95.3258 27.6898C95.3004 27.6803 95.2718 27.6835 95.2528 27.6994C95.2306 27.7152 95.2211 27.7438 95.2306 27.7691L95.3765 28.3972L94.9388 28.8762C94.9198 28.8952 94.9166 28.9238 94.9261 28.9491C94.9356 28.9745 94.9578 28.9904 94.9864 28.9935L95.6303 29.0475L95.9507 29.6089C95.9634 29.6311 95.9887 29.647 96.0141 29.6438C96.0205 29.6438 96.0236 29.6438 96.03 29.6438C96.049 29.6375 96.068 29.6216 96.0775 29.6026L96.3281 29.0062L96.9626 28.8762H96.9657C97.0038 28.8635 97.026 28.8254 97.0165 28.7874C97.0101 28.7683 97.0006 28.7556 96.9848 28.7461L96.5026 28.3274L96.5058 28.3338Z" fill="white"/>
<path d="M99.4785 27.9645L99.5165 27.6156C99.5165 27.5871 99.507 27.5617 99.4848 27.549C99.4626 27.5331 99.4309 27.5331 99.4087 27.549L99.1073 27.7298L98.787 27.5839C98.7616 27.5712 98.733 27.5744 98.7108 27.5934C98.6918 27.6124 98.6791 27.6378 98.6886 27.6664L98.7679 28.009L98.53 28.2691C98.511 28.2881 98.5047 28.3166 98.5173 28.342C98.5269 28.3674 98.5491 28.3833 98.5776 28.3864L98.9265 28.415L99.101 28.7195C99.1137 28.7417 99.1391 28.7576 99.1676 28.7544C99.174 28.7544 99.1771 28.7544 99.1835 28.7544C99.2057 28.748 99.2215 28.7354 99.2279 28.7131L99.3643 28.3896L99.7069 28.3198H99.7132C99.7513 28.3103 99.7735 28.2691 99.764 28.231C99.7608 28.2151 99.7481 28.1993 99.7322 28.1929L99.4753 27.9709L99.4785 27.9645Z" fill="white"/>
<path d="M97.7042 27.2151L97.7233 27.0375C97.7233 27.0089 97.7137 26.9836 97.6915 26.9709C97.6693 26.955 97.6408 26.955 97.6186 26.9709L97.4632 27.0629L97.3014 26.9899C97.276 26.9772 97.2475 26.9836 97.2253 26.9994C97.2062 27.0153 97.1967 27.0438 97.203 27.0692L97.2443 27.2437L97.1237 27.3769C97.1047 27.3959 97.0984 27.4245 97.1079 27.4499C97.1174 27.4752 97.1428 27.4943 97.1682 27.4943L97.3458 27.5101L97.4346 27.6656C97.4473 27.6909 97.4727 27.7036 97.498 27.7005C97.5044 27.7005 97.5107 27.7005 97.5139 27.7005C97.5361 27.6941 97.552 27.6814 97.5615 27.6592L97.6313 27.4943L97.8089 27.4594H97.8121C97.8501 27.4499 97.8724 27.4086 97.8628 27.3706C97.8565 27.3547 97.847 27.3388 97.8343 27.3293L97.7074 27.2183L97.7042 27.2151Z" fill="white"/>
<path d="M100.233 26.7387L100.045 26.5738L100.074 26.3137C100.074 26.2851 100.064 26.2598 100.042 26.2439C100.02 26.2312 99.9883 26.2312 99.9661 26.2439L99.7441 26.3771L99.5062 26.2693C99.4808 26.2566 99.4523 26.2629 99.4332 26.2788C99.411 26.2946 99.4047 26.3232 99.4079 26.3486L99.4681 26.6023L99.2937 26.7958C99.2746 26.8149 99.2683 26.8434 99.2778 26.8688C99.2873 26.8942 99.3095 26.9132 99.3381 26.9132L99.5982 26.9354L99.7282 27.1606C99.7409 27.186 99.7663 27.1987 99.7949 27.1955C99.8012 27.1955 99.8044 27.1955 99.8107 27.1955C99.8329 27.1892 99.8488 27.1765 99.8583 27.1574L99.9598 26.9164L100.214 26.8624C100.214 26.8624 100.217 26.8624 100.22 26.8624C100.258 26.8498 100.28 26.8117 100.271 26.7736C100.267 26.7578 100.255 26.7419 100.239 26.7324L100.233 26.7387Z" fill="white"/>
<path d="M106.847 23.6652H103.535C104.382 23.5352 105.363 23.348 105.642 23.1799C106.349 22.758 106.393 22.0602 105.854 21.4353C105.664 21.2164 105.467 21.0007 105.267 20.7882C104.662 20.1538 103.91 20.1125 103.393 20.8135C103.037 21.2957 102.438 23.1006 102.257 23.6652H102.251C102.181 23.1958 102.273 22.758 102.076 21.8857C101.905 21.1339 101.363 20.268 100.865 20.0142C100.709 19.9349 100.335 19.9634 100.167 20.0142C99.8368 20.1093 99.3896 20.509 99.0216 20.785C98.5014 21.1752 98.3523 21.762 98.752 22.2727C99.0723 22.6819 99.5259 22.9991 99.9954 23.2402C100.341 23.421 100.925 23.5637 101.42 23.6652H97.7147C97.5815 23.6652 97.4736 23.7731 97.4736 23.9063V25.4955C97.4736 25.6287 97.5815 25.7366 97.7147 25.7366H97.9716V30.5644C97.9716 30.6977 98.0795 30.8055 98.2127 30.8055H106.365C106.498 30.8055 106.606 30.6977 106.606 30.5644V25.7366H106.85C106.983 25.7366 107.091 25.6287 107.091 25.4955V23.9063C107.091 23.7731 106.983 23.6652 106.85 23.6652H106.847ZM105.236 21.5019C105.734 22.1648 103.583 23.0054 102.616 23.551C103.348 22.6629 104.738 20.8357 105.236 21.5019ZM99.7924 21.099C100.43 20.5661 101.378 22.6755 101.972 23.6113C101.049 22.9261 99.1516 21.6319 99.7924 21.099ZM98.4506 25.7397H101.423V30.3265H98.4506V25.7397ZM106.117 30.3234H102.971V25.7366H106.117V30.3234ZM106.603 25.2544H97.9526V24.1474H106.606V25.2544H106.603Z" fill="white"/>
</g>
<path fill-rule="evenodd" clip-rule="evenodd" d="M37.7104 0L37.6536 0.0931497C37.624 0.144627 37.355 0.576057 36.5134 1.91202H35.6422C35.1659 1.91202 34.7735 1.90712 34.7735 1.89976C34.7735 1.89241 34.8944 1.46833 35.045 0.95601C35.1955 0.443687 35.3165 0.0196105 35.3165 0.0122565C35.3165 0.00490261 35.8545 0 37.7104 0ZM68.7079 0L68.1255 0.926594C67.8046 1.43401 67.5282 1.86544 67.5085 1.8826C67.4838 1.90467 67.2814 1.91202 65.7562 1.89976L66.0327 0.95601C66.1857 0.436333 66.3115 0.00980515 66.3115 0.00490254C66.314 0.00245123 66.852 0 68.7079 0ZM22.6731 2.59839C23.8306 2.59593 24.1292 2.60329 24.1514 2.6278C24.1662 2.64496 24.6327 3.76521 25.188 5.11833C25.7433 6.469 26.2023 7.57454 26.2097 7.57454C26.2171 7.57454 26.4762 6.95436 26.7872 6.19445C27.0982 5.437 27.5597 4.31675 28.2705 2.59593L33.9344 2.59839L34.7908 4.27753C35.2646 5.19922 35.6595 5.95668 35.6743 5.95668C35.6891 5.95913 36.084 5.20658 37.4093 2.61064L38.8432 2.60574C40.2006 2.59839 40.2771 2.60084 40.2623 2.64251C40.2548 2.66457 39.4972 3.9368 36.9083 8.24865L36.8836 11.9991H34.391L34.3786 8.23639L31.0099 2.74546L30.8667 3.03227C30.7878 3.1916 29.7265 5.32914 26.2911 12.2443L26.1529 12.2492C26.0221 12.2565 26.0098 12.2516 25.9728 12.1879C25.953 12.1511 24.8745 9.98662 23.5789 7.37843C22.2832 4.77024 21.2244 2.6278 21.2244 2.61554C21.2244 2.60574 21.876 2.59839 22.6731 2.59839ZM104.103 2.61064L105.128 5.09872C105.69 6.46655 106.152 7.58925 106.154 7.5917C106.157 7.59415 106.621 6.4739 108.208 2.61064L109.609 2.60329C110.93 2.59839 111.009 2.60084 110.999 2.64006C110.994 2.66457 109.92 4.83888 106.233 12.259L105.947 12.2443L103.553 7.42746C102.238 4.7776 101.162 2.60819 101.162 2.60329C101.162 2.60084 101.823 2.60084 104.103 2.61064ZM15.8566 2.41944C16.0467 2.42434 16.3231 2.4464 16.4736 2.46601C16.6217 2.48808 16.866 2.53465 17.0166 2.57387C17.1646 2.61064 17.3991 2.68173 17.5348 2.73321C17.6706 2.78468 17.8878 2.87783 18.0161 2.94157C18.1444 3.0053 18.3493 3.12542 18.4727 3.20386C18.5936 3.28475 18.7787 3.41712 18.8799 3.49801C18.9811 3.57891 19.1588 3.74315 19.2747 3.86326C19.3907 3.98337 19.5586 4.18193 19.6499 4.30204C19.7412 4.42461 19.8769 4.62807 19.9485 4.75554C20.0225 4.883 20.1361 5.10852 20.2002 5.25805C20.2619 5.40758 20.3483 5.63801 20.3878 5.77283C20.4273 5.90765 20.4816 6.12827 20.5087 6.26309C20.5334 6.39791 20.568 6.64549 20.5852 6.81463C20.6025 7.00093 20.6074 7.26567 20.6 7.48874C20.5902 7.6922 20.568 7.96675 20.5457 8.10157C20.526 8.23639 20.4816 8.45211 20.4495 8.57957C20.4149 8.70704 20.3582 8.90069 20.3236 9.00855C20.2866 9.11641 20.1928 9.33703 20.1163 9.49881C20.0398 9.6606 19.9115 9.89347 19.8325 10.0136C19.7535 10.1337 19.6375 10.3004 19.5734 10.3813C19.5117 10.4622 19.371 10.6215 19.2624 10.7343C19.1538 10.847 18.9589 11.0235 18.8305 11.1265C18.7022 11.2294 18.4899 11.379 18.3616 11.4599C18.2333 11.5383 18.0235 11.6511 17.8976 11.7099C17.7742 11.7687 17.5447 11.857 17.3917 11.9109C17.2411 11.9624 17.0042 12.031 16.8685 12.0604C16.7328 12.0898 16.4934 12.1291 16.3379 12.1462C16.1824 12.1658 15.8936 12.1805 15.6962 12.1805C15.4988 12.1805 15.21 12.1658 15.0545 12.1462C14.8991 12.1291 14.6597 12.0898 14.5239 12.0604C14.3882 12.031 14.1611 11.9673 14.018 11.9207C13.8749 11.8741 13.6429 11.781 13.4997 11.7123C13.3566 11.6462 13.1567 11.5408 13.0555 11.4795C12.9543 11.4157 12.7865 11.303 12.6853 11.2294C12.5841 11.1559 12.3842 10.9843 12.246 10.8495C12.1053 10.7122 11.9301 10.5308 11.8585 10.4426C11.787 10.3543 11.6685 10.195 11.5969 10.0871C11.5254 9.97927 11.4118 9.79052 11.3477 9.67041C11.2835 9.55029 11.1848 9.33458 11.1305 9.1924C11.0737 9.05022 10.9898 8.79039 10.9454 8.61634C10.901 8.4423 10.8467 8.16285 10.8245 7.99861C10.8023 7.82947 10.785 7.52061 10.785 7.29999C10.785 7.07937 10.7973 6.79993 10.8097 6.67981C10.8245 6.5597 10.859 6.34398 10.8862 6.20181C10.9158 6.05963 10.9824 5.80715 11.0392 5.63801C11.0935 5.46887 11.2218 5.17226 11.3205 4.97615C11.4192 4.78005 11.5747 4.51531 11.666 4.38784C11.7598 4.25792 11.9844 4.00298 12.1794 3.81178C12.3817 3.60832 12.6211 3.39996 12.7593 3.30191C12.8877 3.21366 13.1443 3.06168 13.327 2.96853C13.5096 2.87538 13.7885 2.75527 13.944 2.70134C14.0994 2.64741 14.3561 2.57632 14.5116 2.54201C14.6671 2.50769 14.9015 2.46601 15.0299 2.45376C15.1582 2.43905 15.3186 2.42189 15.3877 2.41699C15.4544 2.41209 15.6666 2.41209 15.8566 2.41944ZM15.0792 4.76779C14.9904 4.78985 14.8398 4.84378 14.746 4.88791C14.6498 4.93203 14.5165 5.00312 14.4499 5.04969C14.3808 5.09382 14.2673 5.18206 14.1932 5.24334C14.1192 5.30463 13.9909 5.43945 13.9119 5.53995C13.8304 5.64046 13.7268 5.79489 13.6774 5.88314C13.6281 5.97138 13.554 6.14297 13.5096 6.26309C13.4652 6.3832 13.4109 6.58421 13.3862 6.70432C13.3566 6.85385 13.3418 7.0426 13.3418 7.28038C13.3418 7.47649 13.3541 7.71916 13.3739 7.81967C13.3911 7.92017 13.438 8.10402 13.4775 8.22413C13.517 8.34425 13.5861 8.51584 13.6305 8.60409C13.675 8.69233 13.7539 8.82961 13.8082 8.9105C13.8625 8.99139 13.9834 9.13602 14.0797 9.23162C14.1735 9.32722 14.324 9.45224 14.4129 9.51107C14.5017 9.5699 14.6498 9.65325 14.746 9.69737C14.8398 9.74149 15.0126 9.80032 15.1286 9.82729C15.2446 9.85425 15.4321 9.88612 15.5481 9.89347C15.6691 9.90328 15.8517 9.89592 15.98 9.87877C16.101 9.86406 16.3009 9.81748 16.4243 9.77826C16.5452 9.74149 16.7229 9.66305 16.8191 9.60667C16.9129 9.55274 17.0585 9.45224 17.14 9.38605C17.2214 9.31987 17.3325 9.21446 17.3892 9.15073C17.446 9.08454 17.5447 8.94972 17.6113 8.84922C17.678 8.74871 17.7718 8.57712 17.8162 8.46926C17.8606 8.36141 17.9272 8.16775 17.9593 8.04029C18.0087 7.85889 18.0235 7.72162 18.0334 7.42746C18.0432 7.18478 18.0358 6.97152 18.0161 6.83915C18.0013 6.72393 17.9593 6.53764 17.9272 6.42242C17.8927 6.30721 17.8112 6.10375 17.7446 5.96893C17.678 5.83411 17.5521 5.63555 17.4657 5.5277C17.3769 5.41984 17.2239 5.26786 17.1252 5.18697C17.024 5.10852 16.8759 5.00802 16.7945 4.96144C16.713 4.91732 16.5452 4.84868 16.4243 4.80701C16.3009 4.76779 16.1158 4.72367 16.0096 4.70896C15.906 4.69425 15.7505 4.68445 15.6641 4.68445C15.5802 4.6869 15.4494 4.6967 15.3754 4.70651C15.3013 4.71877 15.1681 4.74573 15.0792 4.76779ZM47.6809 2.40473C47.755 2.40473 47.9648 2.41454 48.1424 2.42679C48.3226 2.4415 48.5891 2.47337 48.7347 2.50278C48.8828 2.5322 49.1123 2.59348 49.2481 2.64006C49.3838 2.68663 49.5887 2.77488 49.7047 2.83371C49.8207 2.89499 49.986 2.99795 50.0749 3.06168C50.1637 3.12787 50.3192 3.26759 50.4204 3.373C50.5216 3.48086 50.6499 3.63284 50.7042 3.71373C50.756 3.79462 50.8424 3.94415 50.8917 4.04466C50.9411 4.14516 51.0077 4.30449 51.0374 4.4001C51.067 4.4957 51.0867 4.57414 51.0818 4.57414C51.0768 4.57659 50.6499 4.7825 50.1292 5.03498C49.6109 5.28502 49.174 5.48602 49.1617 5.47867C49.1469 5.47132 49.137 5.45171 49.137 5.437C49.137 5.41984 49.0926 5.31198 49.0358 5.19677C48.9618 5.05214 48.8853 4.94429 48.7816 4.83888C48.6854 4.74328 48.5719 4.66239 48.4707 4.61336C48.3818 4.57414 48.2239 4.52266 48.1178 4.5006C48.0141 4.47854 47.8463 4.46138 47.7476 4.46138C47.6513 4.46138 47.4983 4.47363 47.4095 4.48834C47.3206 4.5006 47.1873 4.53982 47.1133 4.57414C47.0393 4.60846 46.9455 4.66484 46.906 4.70161C46.8665 4.73838 46.8147 4.81191 46.79 4.86584C46.7629 4.92713 46.7431 5.02028 46.7431 5.11097C46.7431 5.21393 46.7604 5.29482 46.7999 5.38062C46.832 5.44925 46.9134 5.55221 46.98 5.61349C47.0467 5.67478 47.2145 5.78018 47.3478 5.84882C47.4835 5.91991 47.8216 6.06698 48.1005 6.17729C48.3794 6.29005 48.7668 6.45429 48.9643 6.54254C49.1617 6.63324 49.4381 6.77051 49.5813 6.84895C49.7244 6.92739 49.9243 7.04751 50.0255 7.11614C50.1267 7.18233 50.2871 7.29999 50.3809 7.37598C50.4747 7.45197 50.6203 7.58679 50.7017 7.67749C50.7856 7.76819 50.8967 7.91527 50.9534 8.00842C51.0077 8.09912 51.0818 8.2462 51.1188 8.33444C51.1533 8.42269 51.2002 8.56487 51.2225 8.65311C51.2447 8.74381 51.2693 8.97423 51.2767 9.1924C51.2866 9.43998 51.2817 9.64589 51.2595 9.78071C51.2447 9.89593 51.2027 10.0773 51.1681 10.1852C51.1336 10.293 51.062 10.4695 51.0077 10.5774C50.9534 10.6852 50.8572 10.8446 50.7906 10.9328C50.7264 11.0211 50.6079 11.1534 50.5265 11.2294C50.4475 11.303 50.3118 11.4182 50.2229 11.4819C50.1341 11.5457 49.986 11.6413 49.8898 11.6927C49.7935 11.7442 49.6158 11.8251 49.4949 11.8717C49.3715 11.9207 49.1617 11.9869 49.026 12.0212C48.8902 12.0531 48.6558 12.1021 48.5077 12.1266C48.2905 12.1609 48.1054 12.1707 47.5822 12.1683C47.0269 12.1658 46.8863 12.1585 46.6444 12.1144C46.4889 12.0874 46.2594 12.0335 46.1385 11.9991C46.0151 11.9624 45.8152 11.8937 45.6942 11.8447C45.5708 11.7932 45.3783 11.6976 45.2648 11.6315C45.1513 11.5628 44.9588 11.4255 44.8329 11.3226C44.7095 11.2221 44.5516 11.0726 44.4825 10.9917C44.4133 10.9132 44.2949 10.7637 44.2233 10.6632C44.1493 10.5627 44.0259 10.3543 43.9469 10.2048C43.8704 10.0528 43.8062 9.91063 43.8062 9.89102C43.8062 9.86651 44.1764 9.6655 44.8477 9.32232C45.4203 9.02816 45.8966 8.78548 45.904 8.78058C45.9114 8.77813 45.9558 8.85902 46.0027 8.96443C46.0496 9.06984 46.1508 9.24878 46.2273 9.36399C46.3038 9.4792 46.4371 9.63854 46.5235 9.71698C46.6098 9.79542 46.7357 9.89347 46.8048 9.9327C46.8714 9.96947 47.0171 10.0307 47.1256 10.0651C47.2614 10.1067 47.4045 10.1313 47.5822 10.1411C47.7426 10.1509 47.9154 10.1435 48.0388 10.1239C48.1474 10.1067 48.2905 10.0724 48.3596 10.0479C48.4263 10.0234 48.5324 9.96211 48.5916 9.91063C48.6533 9.85916 48.7273 9.76355 48.7594 9.69492C48.8014 9.60177 48.8162 9.52823 48.8162 9.3885C48.8162 9.23652 48.8063 9.1826 48.7496 9.07229C48.7101 8.9963 48.6262 8.89334 48.5571 8.83206C48.488 8.77323 48.3053 8.66047 48.1498 8.58202C47.9944 8.50113 47.5822 8.32464 47.2367 8.18736C46.8912 8.05009 46.3853 7.82947 46.1138 7.6971C45.8423 7.56473 45.5141 7.38824 45.3857 7.30244C45.2426 7.20929 45.0501 7.04506 44.8921 6.88817C44.749 6.746 44.596 6.5695 44.554 6.49596C44.5096 6.42242 44.4454 6.29496 44.4134 6.21406C44.3788 6.13317 44.3344 6.0008 44.3122 5.91991C44.2924 5.83901 44.2628 5.66742 44.248 5.53995C44.2332 5.41249 44.2283 5.20167 44.2357 5.0742C44.2455 4.94674 44.2702 4.75799 44.29 4.65748C44.3122 4.55698 44.3517 4.40745 44.3788 4.32656C44.4084 4.24566 44.4726 4.09613 44.5219 3.99563C44.5738 3.89513 44.6676 3.74315 44.7293 3.6598C44.791 3.57401 44.9168 3.43183 45.0081 3.34358C45.1019 3.25288 45.2426 3.13277 45.324 3.07639C45.4055 3.01756 45.5437 2.93176 45.6325 2.88519C45.7214 2.83616 45.8769 2.76262 45.978 2.72095C46.0792 2.67928 46.2841 2.61309 46.4346 2.57387C46.5827 2.53465 46.79 2.49053 46.8912 2.47337C46.9924 2.45866 47.1824 2.4366 47.3107 2.42679C47.4391 2.41699 47.6069 2.40718 47.6809 2.40473ZM75.0506 2.41944C75.248 2.42434 75.5071 2.43905 75.6305 2.45376C75.7515 2.46847 75.981 2.50769 76.1365 2.54201C76.292 2.57632 76.5313 2.64251 76.6671 2.68908C76.8028 2.73566 77.0027 2.819 77.1113 2.87293C77.2199 2.92686 77.4025 3.03227 77.5185 3.10826C77.6345 3.1818 77.8122 3.31172 77.9134 3.39506C78.0146 3.48086 78.175 3.62793 78.444 3.90003L78.3083 4.03975C78.2342 4.11574 77.8665 4.48589 76.8152 5.5375L76.6301 5.36101C76.5289 5.26296 76.3956 5.14774 76.3339 5.10607C76.2722 5.0644 76.1291 4.98596 76.0131 4.92958C75.8971 4.87565 75.7145 4.80456 75.6059 4.77515C75.438 4.73102 75.3393 4.72367 74.9519 4.72122C74.5767 4.71877 74.4657 4.72612 74.3225 4.76534C74.2263 4.78985 74.0733 4.84378 73.977 4.883C73.8808 4.92222 73.7376 4.99576 73.6562 5.04479C73.5747 5.09381 73.4267 5.21148 73.3255 5.30708C73.2268 5.40023 73.096 5.54486 73.0392 5.62575C72.98 5.70664 72.8862 5.86598 72.8319 5.98119C72.7776 6.0964 72.706 6.2827 72.6715 6.39791C72.6394 6.51312 72.5999 6.69207 72.5851 6.79747C72.5703 6.90043 72.5579 7.12595 72.5579 7.29999C72.5579 7.47158 72.5752 7.71181 72.595 7.83192C72.6172 7.95204 72.6641 8.14569 72.6986 8.2609C72.7356 8.37611 72.8097 8.55261 72.8615 8.65311C72.9133 8.75362 73.0194 8.91785 73.0959 9.01836C73.1725 9.11886 73.286 9.24388 73.3477 9.29781C73.4094 9.35174 73.5254 9.43998 73.6068 9.49391C73.6883 9.55029 73.8388 9.63118 73.94 9.67776C74.0412 9.72433 74.2312 9.78807 74.3595 9.81993C74.4879 9.85425 74.71 9.88612 74.8531 9.89347C74.9987 9.90328 75.2085 9.89593 75.3344 9.88122C75.4553 9.86651 75.6281 9.83709 75.7169 9.81503C75.8058 9.79297 75.9662 9.73414 76.0748 9.68511C76.1834 9.63609 76.3265 9.55764 76.3956 9.51107C76.4622 9.46695 76.6004 9.35419 76.8769 9.09435L77.6913 9.87877C78.138 10.3102 78.5057 10.6705 78.5057 10.6828C78.5057 10.6926 78.3922 10.8103 78.254 10.9475C78.1133 11.0824 77.906 11.2638 77.79 11.3471C77.674 11.4329 77.4741 11.5604 77.3458 11.6315C77.2174 11.7025 77.0101 11.8006 76.8892 11.8496C76.7658 11.8962 76.5387 11.9697 76.3833 12.009C76.2278 12.0506 75.9835 12.0997 75.8403 12.1217C75.6972 12.1438 75.364 12.1683 75.0999 12.1756C74.8062 12.183 74.5027 12.1781 74.3225 12.1609C74.1596 12.1462 73.8882 12.1046 73.7179 12.0702C73.5476 12.0359 73.2761 11.9648 73.1132 11.9134C72.9503 11.8594 72.6838 11.7516 72.5209 11.6731C72.358 11.5947 72.1483 11.4795 72.052 11.4182C71.9558 11.3569 71.7904 11.2392 71.6818 11.1534C71.5732 11.0676 71.3955 10.9083 71.2894 10.8005C71.1808 10.6901 71.0155 10.4965 70.9192 10.369C70.8205 10.2416 70.6847 10.0381 70.6156 9.91554C70.5465 9.79542 70.4478 9.60177 70.396 9.48656C70.3466 9.37135 70.2677 9.16298 70.2208 9.02081C70.1739 8.87863 70.1097 8.63105 70.0776 8.46926C70.0456 8.30748 70.0061 8.04764 69.9888 7.89321C69.9715 7.72162 69.9641 7.41765 69.974 7.12105C69.9814 6.77296 70.0011 6.54254 70.0406 6.32437C70.0702 6.15523 70.1344 5.89049 70.1813 5.73606C70.2282 5.58163 70.3096 5.34875 70.3639 5.22128C70.4182 5.09382 70.5219 4.883 70.5934 4.75554C70.6675 4.62807 70.7958 4.42951 70.8822 4.3143C70.9661 4.19909 71.0994 4.03485 71.1734 3.94906C71.2499 3.86326 71.4103 3.70638 71.5337 3.59852C71.6547 3.49311 71.8496 3.34113 71.9656 3.26269C72.0816 3.18425 72.2815 3.06413 72.4099 2.9955C72.5382 2.92686 72.7603 2.82391 72.9035 2.76998C73.0466 2.7136 73.3107 2.63025 73.4884 2.58368C73.6685 2.5371 73.9474 2.48317 74.1053 2.46356C74.2658 2.44395 74.4632 2.42434 74.5446 2.41699C74.6261 2.41209 74.8531 2.41209 75.0506 2.41944ZM95.7937 2.41944C95.969 2.42434 96.2084 2.43905 96.3244 2.45376C96.4404 2.46601 96.618 2.49543 96.7192 2.51504C96.8204 2.5371 97.0154 2.58368 97.1511 2.6229C97.2869 2.66212 97.509 2.74056 97.6447 2.79449C97.7805 2.85087 97.9754 2.94157 98.0766 2.99795C98.1778 3.05188 98.3728 3.17199 98.5085 3.26269C98.6442 3.35339 98.8516 3.51517 98.97 3.62058C99.086 3.72599 99.2366 3.87306 99.3032 3.9466C99.3698 4.02014 99.4685 4.13781 99.5253 4.20399C99.5796 4.27263 99.6857 4.41971 99.7622 4.53492C99.8363 4.65013 99.9597 4.86584 100.034 5.01292C100.108 5.16245 100.214 5.41003 100.268 5.56447C100.322 5.7189 100.389 5.94687 100.416 6.06698C100.446 6.18955 100.485 6.41752 100.508 6.57686C100.527 6.73864 100.545 7.04751 100.545 7.28773C100.545 7.51816 100.532 7.80251 100.52 7.91772C100.505 8.03293 100.471 8.24129 100.443 8.38347C100.414 8.52564 100.347 8.77813 100.29 8.94727C100.236 9.11641 100.108 9.41302 100.009 9.60912C99.9103 9.80523 99.7598 10.0602 99.6758 10.1778C99.5895 10.2955 99.4414 10.4818 99.3427 10.5945C99.2439 10.7073 99.0687 10.8814 98.9527 10.9819C98.8343 11.0824 98.6442 11.2343 98.5258 11.3177C98.4073 11.401 98.1729 11.5408 98.0026 11.629C97.8323 11.7148 97.588 11.8251 97.4596 11.8717C97.3313 11.9207 97.1141 11.9869 96.9784 12.0212C96.8426 12.0555 96.6205 12.1021 96.4848 12.1266C96.2948 12.1585 96.0998 12.1683 95.6457 12.1683C95.1916 12.1683 94.9966 12.1585 94.8066 12.1266C94.6708 12.1021 94.4537 12.0555 94.3253 12.0237C94.197 11.9918 93.9847 11.9281 93.8564 11.8815C93.7281 11.8349 93.5282 11.7516 93.4122 11.6976C93.2962 11.6437 93.1086 11.5408 92.9926 11.4697C92.8766 11.401 92.6989 11.2809 92.5977 11.2025C92.4966 11.124 92.3312 10.9868 92.23 10.8936C92.1288 10.8005 91.9635 10.6264 91.8623 10.5038C91.7586 10.3837 91.6106 10.1852 91.5291 10.0626C91.4501 9.9425 91.3193 9.70963 91.2379 9.54784C91.1589 9.38605 91.0503 9.12131 90.996 8.95953C90.9417 8.79774 90.8702 8.5281 90.8356 8.35896C90.8011 8.18982 90.7616 7.90792 90.7443 7.73387C90.7295 7.55248 90.7221 7.27058 90.7295 7.08428C90.7394 6.90288 90.7616 6.64304 90.7813 6.50822C90.8011 6.3734 90.8406 6.16994 90.8677 6.05473C90.8949 5.93952 90.9516 5.74096 90.9936 5.61349C91.0355 5.48602 91.1367 5.24335 91.2182 5.0742C91.2996 4.90507 91.4477 4.64768 91.5464 4.49815C91.6476 4.35107 91.8154 4.13045 91.9215 4.00789C92.0301 3.88777 92.2152 3.70147 92.3386 3.59607C92.4595 3.49066 92.6767 3.32642 92.8199 3.23082C92.963 3.13767 93.2123 2.9955 93.3752 2.91705C93.538 2.83861 93.8046 2.7283 93.9675 2.67683C94.1304 2.6229 94.3747 2.55671 94.5104 2.5273C94.6461 2.50033 94.8633 2.46601 94.9917 2.45131C95.12 2.43905 95.2804 2.42189 95.3495 2.41699C95.4161 2.41209 95.6185 2.41209 95.7937 2.41944ZM95.0163 4.77024C94.9423 4.7923 94.814 4.83643 94.7325 4.87075C94.6511 4.90507 94.5005 4.98596 94.3993 5.04969C94.2982 5.11588 94.1254 5.2605 94.0168 5.37326C93.9082 5.48357 93.7651 5.66007 93.7034 5.76057C93.6392 5.86107 93.5528 6.02776 93.5084 6.12827C93.4665 6.22877 93.4023 6.41752 93.3702 6.54499C93.3233 6.72148 93.306 6.86611 93.2962 7.14556C93.2863 7.37108 93.2937 7.59415 93.311 7.72162C93.3283 7.83683 93.3628 8.01332 93.3924 8.11382C93.4196 8.21433 93.4788 8.38102 93.5208 8.48152C93.5627 8.58203 93.6614 8.75852 93.7379 8.87373C93.8145 8.98894 93.9576 9.16053 94.0588 9.25613C94.1575 9.35174 94.3154 9.48165 94.4117 9.54294C94.5079 9.60422 94.6684 9.68756 94.7696 9.72924C94.8707 9.76846 95.0312 9.82239 95.1274 9.84445C95.2533 9.87632 95.3964 9.88857 95.658 9.88612C95.9443 9.88612 96.0554 9.87386 96.2133 9.83219C96.3219 9.80523 96.5095 9.73169 96.6329 9.67286C96.7538 9.61403 96.9265 9.51352 97.0129 9.44734C97.1018 9.38115 97.24 9.25368 97.3214 9.16298C97.4053 9.07229 97.5263 8.90805 97.5954 8.79774C97.662 8.68498 97.7558 8.49378 97.8027 8.37121C97.8471 8.2511 97.9063 8.05744 97.931 7.94223C97.9557 7.82702 97.9853 7.61376 97.9927 7.46423C98.0026 7.30489 97.9976 7.09408 97.9804 6.94945C97.9656 6.81463 97.9236 6.59892 97.889 6.47145C97.8545 6.34398 97.7903 6.16259 97.7459 6.06698C97.7015 5.97138 97.6176 5.8194 97.5559 5.7238C97.4942 5.6282 97.3782 5.48112 97.2967 5.39533C97.2178 5.30953 97.0845 5.18942 97.0031 5.12813C96.9216 5.06685 96.7538 4.97125 96.6329 4.91242C96.5095 4.85359 96.3219 4.7825 96.2133 4.75554C96.0924 4.72367 95.9048 4.70161 95.7321 4.69425C95.5766 4.68935 95.3816 4.69425 95.3002 4.70651C95.2187 4.72122 95.0904 4.74818 95.0163 4.77024ZM0 2.47582L0.728045 2.47827L6.13288 7.42746L6.15755 2.61064H8.65019V12.1217H7.92955L2.49263 7.15782V12.0114H0V2.47582ZM53.7743 2.48808L55.8474 4.53001C56.9901 5.65026 57.9328 6.56705 57.9452 6.5646C57.9575 6.5597 58.9027 5.63801 62.1185 2.47582H62.3529C62.4813 2.47582 62.5874 2.47827 62.5899 2.48317C62.5899 2.48563 62.617 4.38539 62.6491 6.70432C62.6812 9.02326 62.7083 11.1657 62.7108 12.0114H61.5385C60.7808 12.0114 60.3613 12.0016 60.3539 11.9869C60.3465 11.9746 60.3243 10.9549 60.2996 9.72678C60.2774 8.49623 60.2527 7.48139 60.2453 7.47158C60.2379 7.46423 59.7147 7.95694 57.9353 9.67776L57.0715 8.83941C56.5977 8.38102 56.0794 7.87605 55.6302 7.43972L55.6179 7.72162C55.6105 7.87605 55.5932 8.7144 55.5784 9.58461C55.5661 10.4548 55.5488 11.3569 55.529 12.0114H53.1598V11.7369C53.1598 11.5849 53.1869 9.44243 53.2215 6.97397C53.2561 4.50795 53.2832 2.48562 53.2832 2.48072C53.2832 2.47827 53.3943 2.47827 53.7743 2.48808ZM67.8318 2.61064V11.9991H65.3392L65.3318 7.32941C65.3293 4.76044 65.3318 2.64496 65.3392 2.6278C65.349 2.60329 65.6131 2.59839 67.8318 2.61064ZM80.1346 2.59839H82.6272V6.05473H86.107V2.59839H88.5996V12.0114H86.107V8.30993H82.6272V12.0114H80.1346V2.59839Z" fill="#202020"/>
<defs>
<clipPath id="clip0_7416_3654">
<rect width="12.168" height="10.8421" fill="white" transform="translate(94.9199 19.9688)"/>
</clipPath>
</defs>
</svg>
