<?xml version="1.0" encoding="UTF-8"?> <svg xmlns="http://www.w3.org/2000/svg" xmlns:xlink="http://www.w3.org/1999/xlink" width="150px" height="65px" viewBox="0 0 150 65" version="1.1"><title>Group 2</title><g id="Page-1" stroke="none" stroke-width="1" fill="none" fill-rule="evenodd"><g id="Manual-SUS-11_2025_4" fill-rule="nonzero"><g id="Group-2" transform="translate(0.000000, -0.000000)"><g id="Group" transform="translate(42.070000, 37.010000)" fill="#000000"><path d="M9.82,27.36 C5.74,27.36 2.64,26.49 7.10542736e-15,23.81 L3.4,20.41 C5.1,22.11 7.4,22.68 9.9,22.68 C13,22.68 14.66,21.51 14.66,19.35 C14.66,18.41 14.4,17.61 13.83,17.08 C13.3,16.59 12.7,16.32 11.45,16.13 L8.2,15.68 C5.89,15.34 4.19,14.62 2.99,13.45 C1.7,12.16 1.06,10.43 1.06,8.16 C1.06,3.36 4.61,0 10.43,0 C14.13,0 16.82,0.91 19.12,3.14 L15.8,6.43 C14.1,4.81 12.06,4.58 10.28,4.58 C7.48,4.58 6.12,6.13 6.12,7.98 C6.12,8.66 6.35,9.38 6.91,9.91 C7.44,10.4 8.31,10.82 9.4,10.97 L12.58,11.42 C15.04,11.76 16.58,12.44 17.72,13.5 C19.16,14.86 19.8,16.83 19.8,19.21 C19.8,24.43 15.45,27.37 9.82,27.37" id="Path"></path><path d="M31.74,27.36 C26.22,27.36 21.84,23.62 21.84,17.91 L21.84,0.23 L27.09,0.23 L27.09,17.73 C27.09,20.83 28.9,22.68 31.74,22.68 C34.58,22.68 36.43,20.83 36.43,17.73 L36.43,0.23 L41.64,0.23 L41.64,17.91 C41.64,23.62 37.26,27.36 31.74,27.36" id="Path"></path><path d="M52.46,27.36 C48.38,27.36 45.28,26.49 42.64,23.81 L46.04,20.41 C47.74,22.11 50.04,22.68 52.54,22.68 C55.64,22.68 57.3,21.51 57.3,19.35 C57.3,18.41 57.04,17.61 56.47,17.08 C55.94,16.59 55.34,16.32 54.09,16.13 L50.84,15.68 C48.54,15.34 46.83,14.62 45.63,13.45 C44.34,12.16 43.7,10.43 43.7,8.16 C43.7,3.36 47.25,0 53.07,0 C56.77,0 59.46,0.91 61.76,3.14 L58.43,6.43 C56.73,4.81 54.69,4.58 52.91,4.58 C50.11,4.58 48.75,6.13 48.75,7.98 C48.75,8.66 48.98,9.38 49.54,9.91 C50.07,10.4 50.94,10.82 52.03,10.97 L55.21,11.42 C57.67,11.76 59.22,12.44 60.35,13.5 C61.79,14.86 62.43,16.83 62.43,19.21 C62.43,24.43 58.08,27.37 52.45,27.37" id="Path"></path><path d="M74.85,4.91 L69.94,4.91 L69.94,12.28 L74.85,12.28 C77.23,12.28 78.74,10.81 78.74,8.61 C78.74,6.41 77.23,4.91 74.85,4.91 M75.11,17.01 L69.93,17.01 L69.93,27.14 L64.68,27.14 L64.68,0.23 L75.11,0.23 C80.66,0.23 83.99,4.05 83.99,8.62 C83.99,13.19 80.67,17.01 75.11,17.01" id="Shape"></path></g><polygon id="Path" fill="#000000" points="143.72 64.14 136.81 51.9 133.33 56.06 133.33 64.14 128.08 64.14 128.08 37.24 133.33 37.24 133.33 48.95 142.82 37.24 149.2 37.24 140.28 47.93 149.84 64.14"></polygon><polygon id="Path" fill="#000000" points="74.69 36.02 70.89 36.02 74.69 30.63 80.57 30.63"></polygon><g id="Group" transform="translate(0.000000, 0.000000)" fill="#F7A600"><path d="M13.57,18.4 C18.82,18.4 26.67,17.86 34.25,15.27 C43.91,11.97 51.02,4.5 54.4,0.34 L54.67,0.01 L47.81,0.01 L47.75,0.09 C45.34,3.28 39.83,7.78 32.23,10 C24.34,12.3 20.36,12.32 16.14,12.34 C15.61,12.34 15.07,12.34 14.52,12.35 L14.44,12.35 C14.44,12.35 8.49,18.23 8.49,18.23 L8.94,18.26 C10.44,18.36 12.01,18.41 13.59,18.41" id="Path"></path><path d="M65.66,22.29 C60.7,22.29 53.27,22.81 46.02,25.29 C36.54,28.53 29.71,35.91 26.47,40.02 L26.21,40.35 L34.76,40.35 L34.82,40.26 C37.8,36.06 42.79,32.45 48.18,30.61 C53.16,28.91 57.87,28.06 62.17,28.04 C64.06,28.04 66.91,28.43 66.91,28.43 L71.03,22.48 L70.66,22.46 C69.03,22.34 67.35,22.28 65.65,22.28" id="Path"></path><path d="M5.19,22.08 L4.88,22.08 L0,26.57 L0.55,26.55 C1.66,26.5 2.74,26.48 3.75,26.48 C12.86,26.48 17.62,28.26 17.88,31.77 C18.08,34.41 16.29,37.17 12.55,39.99 L12.07,40.35 L20.68,40.35 L20.74,40.29 C24.3,36.89 25.73,33.36 25,29.78 C23.25,22.08 10.6,22.08 5.2,22.08" id="Path"></path><path d="M76.66,13.77 C72.17,13.61 62.84,13.27 60.96,9.97 C59.42,7.26 62.66,3.17 65.23,0.34 L65.54,1.60982339e-15 L59.62,1.60982339e-15 L59.56,0.07 C57.24,2.77 53.63,7.92 55.49,12.14 C57.93,17.67 67.76,18.65 73.4,18.75 L73.51,18.75 C73.51,18.75 77.03,13.79 77.03,13.79 L76.66,13.79 L76.66,13.77 Z" id="Path"></path></g></g></g></g></svg> 