<svg xmlns="http://www.w3.org/2000/svg" viewBox="0 0 319 104" width="319" height="104">
	<defs>
		<linearGradient id="grd1" gradientUnits="userSpaceOnUse" x1="-48.247" y1="44.497" x2="237.78" y2="44.497">
			<stop offset="0" stop-color="#ffed00"/>
			<stop offset="1" stop-color="#009dc5"/>
		</linearGradient>
	</defs>
	<style>
		tspan { white-space:pre }
		.shp0 { fill: #00afcb } 
		.shp1 { fill: #575755 } 
		.shp2 { fill: url(#grd1) } 
		.shp3 { fill: #b2b2b2 } 
	</style>
	<g id="Logo">
		<path id="Rectangle-path" class="shp0" d="M112,83h73v-2h-73z"/>
		<path id="Shape" class="shp1" d="M107,18.42h11.78v2.48h-4.43v11.63h-2.92v-11.61h-4.42zM131.26,18.42v2.33h-6.33v3.21h5.52v2.32h-5.5v3.92h6.71v2.36h-9.65v-14.15zM147.01,18.77c-0.02,-0.01 -0.03,-0.01 -0.05,-0.02c0,0 0,-0.01 0,-0.01zM146.96,18.76c0,0.07 0,0.18 0,0.32c0,0.3 0,0.49 0,0.59c0,0.32 0.01,0.64 0.04,0.96c0.03,0.32 0.07,0.65 0.14,0.97c-0.76,-0.39 -1.56,-0.71 -2.38,-0.94c-0.74,-0.2 -1.5,-0.31 -2.26,-0.31c-1.34,-0.07 -2.65,0.41 -3.64,1.32c-0.92,0.94 -1.41,2.24 -1.35,3.56c-0.07,1.45 0.45,2.86 1.45,3.89c1.07,1 2.49,1.52 3.94,1.44c0.79,0 1.58,-0.12 2.33,-0.35c0.85,-0.26 1.67,-0.62 2.45,-1.06c-0.15,0.74 -0.24,1.35 -0.31,1.82c-0.05,0.41 -0.08,0.81 -0.08,1.22c-0.69,0.27 -1.4,0.45 -2.13,0.56c-0.84,0.14 -1.7,0.2 -2.56,0.2c-1.21,0.03 -2.42,-0.15 -3.57,-0.54c-0.97,-0.34 -1.84,-0.9 -2.55,-1.65c-0.63,-0.69 -1.11,-1.5 -1.42,-2.38c-0.34,-0.95 -0.51,-1.96 -0.5,-2.98c-0.1,-2.01 0.64,-3.98 2.05,-5.4c1.55,-1.38 3.58,-2.09 5.65,-1.98c0.79,0 1.57,0.07 2.35,0.19c0.79,0.12 1.57,0.3 2.33,0.54zM154.12,18.42v5.7h6.76v-5.7h2.9v14.12h-2.9v-6.17h-6.76v6.17h-2.92v-14.12zM171.26,18.42l8.42,10.05v-10.05h2.76v14.12h-2.76l-8.47,-10.08v10.08h-2.76v-14.12zM193.4,20.64c-1.19,-0.04 -2.34,0.44 -3.15,1.33c-1.57,2.08 -1.57,4.96 0,7.04c1.75,1.75 4.57,1.75 6.33,0c1.57,-2.08 1.57,-4.96 0,-7.04c-0.81,-0.89 -1.96,-1.38 -3.16,-1.33zM193.4,18.01c1.97,-0.08 3.89,0.67 5.3,2.08c2.69,3.09 2.69,7.73 0,10.82c-3.01,2.76 -7.6,2.76 -10.61,0c-2.68,-3.09 -2.68,-7.72 0,-10.82c1.4,-1.41 3.31,-2.16 5.28,-2.08zM207.3,18.42v11.48h6.96v2.64h-9.89v-14.12zM223.36,20.64c-1.18,-0.04 -2.32,0.43 -3.13,1.3c-1.57,2.08 -1.57,4.96 0,7.04c1.75,1.76 4.57,1.76 6.32,0c1.57,-2.08 1.57,-4.96 0,-7.04c-0.81,-0.89 -1.96,-1.38 -3.16,-1.33zM223.36,18.01c1.97,-0.08 3.89,0.67 5.3,2.08c2.69,3.09 2.69,7.73 0,10.82c-3.01,2.76 -7.6,2.76 -10.61,0c-2.68,-3.09 -2.68,-7.72 0,-10.82c1.4,-1.41 3.31,-2.16 5.28,-2.08zM246.76,19.12c-0.01,0 -0.01,0 -0.02,-0.01v-0.03zM246.75,19.11c0,0.23 0,1.16 0,1.54c0,0.38 0.07,0.83 0.13,1.28c-0.93,-0.49 -1.9,-0.89 -2.91,-1.18c-0.84,-0.25 -1.7,-0.38 -2.57,-0.39c-1.38,-0.08 -2.74,0.41 -3.76,1.35c-0.94,1 -1.43,2.34 -1.35,3.72c-0.05,1.41 0.5,2.77 1.52,3.74c1.11,0.98 2.55,1.49 4.02,1.42c0.55,0 1.09,-0.05 1.63,-0.13c0.5,-0.08 0.99,-0.22 1.47,-0.4v-2.11h-3.01v-2.36h5.71v6.14c-0.93,0.41 -1.9,0.73 -2.9,0.93c-1.06,0.2 -2.13,0.31 -3.21,0.31c-2.17,0.11 -4.29,-0.62 -5.94,-2.05c-2.93,-3.02 -2.93,-7.86 0,-10.88c1.66,-1.41 3.78,-2.13 5.94,-2.02c1.8,0.01 3.58,0.37 5.23,1.08zM251.8,18.42h2.91v14.12h-2.91zM259.38,18.42h9.26v2.33h-6.33v3.21h5.49v2.32h-5.49v3.92h6.7v2.36h-9.58z"/>
		<path id="Shape" class="shp1" d="M112,38.64h2.92v5.63h6.77v-5.63h2.91v13.94h-2.91v-6.08h-6.77v6.08h-2.92zM132.2,38.64v11.35h6.98v2.6h-9.9v-13.95zM148.56,41.4l-3.15,6.39h6.27zM147.41,38.45h2.71l7.22,14.14h-3.27l-1.37,-2.75h-8.27l-1.34,2.75h-2.78zM160.19,38.64l4.28,10.81l4.28,-10.81h2.96l-6.04,14.22h-2.45l-6.16,-14.21zM174.13,38.65h2.82l8.43,9.91v-9.92h2.76v13.94h-2.76l-8.53,-9.95v9.95h-2.77v-13.95zM192.81,38.65h2.85v13.94h-2.93v-13.95zM194.9,34h2.27l-3.2,3.01h-1.24l2.13,-2.99zM200.4,38.65h2.93v5.63h6.77v-5.63h2.91v13.94h-2.95v-6.08h-6.77v6.08h-2.93v-13.94zM224.01,40.83c-1.19,-0.05 -2.35,0.43 -3.16,1.31c-1.58,2.05 -1.58,4.91 0,6.96c1.76,1.73 4.58,1.73 6.34,0c1.58,-2.05 1.58,-4.91 0,-6.96c-0.81,-0.88 -1.97,-1.35 -3.17,-1.31zM224.01,38.23c1.96,-0.07 3.87,0.67 5.27,2.04c2.69,3.05 2.69,7.63 0,10.68c-3.02,2.73 -7.62,2.73 -10.63,0c-2.68,-3.06 -2.68,-7.62 0,-10.68c1.4,-1.39 3.32,-2.13 5.29,-2.05zM242.47,38.65h3.07l5.73,10.45l5.67,-10.45h2.93v13.94h-2.76l0.05,-9.99l-5.39,9.99h-1.3l-5.46,-9.99l0.11,9.99h-2.72v-13.95zM264.55,38.65h9.27v2.3h-6.35v3.16h5.51v2.29h-5.51v3.85h6.71v2.33h-9.68v-13.95zM287,38.81c0,0.48 0,0.95 0.05,1.4c0.05,0.46 0.07,0.88 0.11,1.3c-0.64,-0.34 -1.33,-0.59 -2.04,-0.75c-0.76,-0.17 -1.54,-0.25 -2.31,-0.24c-0.78,-0.05 -1.56,0.09 -2.27,0.42c-0.47,0.25 -0.76,0.74 -0.74,1.27c0,0.94 1.26,1.66 3.79,2.16h0.07c1.28,0.17 2.5,0.66 3.53,1.44c0.71,0.69 1.08,1.65 1.02,2.64c0.07,1.3 -0.48,2.55 -1.49,3.38c-1.27,0.86 -2.8,1.26 -4.33,1.16c-0.89,0.01 -1.78,-0.07 -2.65,-0.23c-0.78,-0.14 -1.54,-0.36 -2.27,-0.68c0,-0.67 -0.07,-1.24 -0.11,-1.71c-0.04,-0.42 -0.1,-0.84 -0.19,-1.25c0.71,0.52 1.51,0.92 2.35,1.18c0.85,0.27 1.75,0.41 2.64,0.41c0.85,0.05 1.7,-0.14 2.45,-0.53c0.53,-0.33 0.84,-0.91 0.82,-1.54c0,-0.87 -0.89,-1.49 -2.68,-1.89h-0.21c-1.33,-0.23 -2.61,-0.65 -3.81,-1.26c-0.5,-0.31 -0.92,-0.76 -1.19,-1.28c-0.28,-0.55 -0.42,-1.15 -0.41,-1.76c-0.06,-1.23 0.51,-2.4 1.52,-3.1c1.3,-0.8 2.82,-1.18 4.35,-1.09c0.64,0 1.29,0.05 1.92,0.15c0.68,0.1 1.35,0.25 2.01,0.43zM290.38,38.65h11.8v2.45h-4.43v11.48h-2.93v-11.49h-4.44zM310.31,41.41l-3.15,6.39h6.26zM311.8,38.45l7.2,14.14h-3.27l-1.37,-2.75h-8.25l-1.34,2.75h-2.77l7.13,-14.14z"/>
		<path id="Shape" class="shp1" d="M114.91,61.59v4.03h2.23c0.87,0.08 1.75,-0.09 2.53,-0.48c0.49,-0.39 0.74,-0.99 0.69,-1.61c0.05,-0.55 -0.18,-1.09 -0.63,-1.43c-0.66,-0.35 -1.41,-0.5 -2.15,-0.44zM112,59.21h5.96c1.44,-0.12 2.87,0.24 4.08,1.02c0.92,0.76 1.41,1.92 1.32,3.1c0.02,0.71 -0.12,1.41 -0.41,2.05c-0.27,0.58 -0.69,1.07 -1.22,1.43c-0.46,0.32 -0.98,0.55 -1.53,0.67c-0.83,0.15 -1.68,0.22 -2.53,0.2h-2.68v5.28h-2.99zM129.46,61.59v4.13h3.04c0.78,0.06 1.56,-0.13 2.22,-0.54c0.5,-0.41 0.77,-1.05 0.72,-1.69c0.05,-0.55 -0.18,-1.09 -0.61,-1.44c-0.59,-0.35 -1.28,-0.51 -1.97,-0.45zM132.64,59.21c1.48,-0.11 2.96,0.25 4.22,1.02c0.95,0.76 1.46,1.93 1.36,3.14c0.11,2 -1.43,3.72 -3.46,3.84c0.55,0.16 1.07,0.43 1.5,0.81c0.44,0.38 0.8,0.84 1.04,1.35c0.07,0.14 0.17,0.34 0.3,0.6c0.45,1.05 1.01,2.05 1.68,2.98h-3.68c-0.44,-1.02 -0.82,-1.91 -1.25,-2.64c-0.33,-0.58 -0.71,-1.14 -1.15,-1.64c-0.22,-0.28 -0.5,-0.5 -0.82,-0.66c-0.41,-0.14 -0.84,-0.2 -1.27,-0.18h-1.63v5.16h-2.91v-13.78zM147.85,61.93l-3.14,6.31h6.25zM146.65,59h2.7l7.21,13.95h-3.26l-1.35,-2.67h-8.23l-1.33,2.72h-2.77zM159.54,59.19h2.92v5.55h6.76v-5.55h2.91v13.76h-2.91v-6h-6.76v6h-2.89v-13.74zM174.81,59.19h3.52l4.19,5.64l4.36,-5.64h3.11l-6.19,7.95v5.81h-2.91v-5.73z"/>
		<path id="Shape" class="shp1" d="M266,34l2.02,3h1.96l2.02,-3h-1.16l-1.84,1.84l-1.83,-1.84h-1.16z"/>
		<path id="Shape" class="shp2" d="M81,82.08c-66.43,1.38 -72.7,-44.96 -42.47,-81.08c-69.25,32.87 -39.14,108.63 42.47,81.08z"/>
		<path id="Shape" class="shp3" d="M42,11.2c35.86,-2.22 59.42,26.46 27.15,63.8c54.77,-29.56 23.55,-83.43 -27.15,-63.8z"/>
		<path id="Shape" class="shp0" d="M39,20.52c23.85,-2.35 38.9,18.66 28.09,46.48c24.02,-28.96 0.37,-57.8 -28.09,-46.48z"/>
		<path id="Shape" class="shp1" d="M113.43,91.88v3.79h0.93c0.62,0.04 1.24,-0.13 1.75,-0.49c0.41,-0.36 0.63,-0.89 0.6,-1.44c0.03,-0.52 -0.18,-1.02 -0.56,-1.37c-0.45,-0.35 -1.01,-0.52 -1.58,-0.49zM112,90.78h2.55c0.97,-0.07 1.94,0.2 2.74,0.75c0.64,0.57 0.97,1.4 0.91,2.25c0.04,0.85 -0.32,1.67 -0.98,2.21c-0.79,0.58 -1.77,0.87 -2.75,0.81h-1.04v4.14h-1.43zM120.45,93.58h1.36v4.05c-0.04,0.59 0.1,1.17 0.4,1.67c0.3,0.37 0.76,0.57 1.24,0.53c0.59,0.04 1.15,-0.25 1.47,-0.74c0.38,-0.64 0.56,-1.39 0.51,-2.14v-3.39h1.36v7.33h-1.25v-1.42c-0.23,0.47 -0.6,0.87 -1.04,1.14c-0.46,0.26 -0.99,0.39 -1.52,0.38c-0.72,0.04 -1.43,-0.26 -1.89,-0.81c-0.48,-0.67 -0.7,-1.48 -0.64,-2.3zM130.04,90h1.36v10.92h-1.36zM139.68,93.58v1.14l-4.23,5.12h4.23v1.07h-5.71v-1.17l4.16,-5.11h-3.99v-1.06zM154.25,100.92h-1.36v-4.13c0.04,-0.58 -0.1,-1.17 -0.41,-1.67c-0.3,-0.38 -0.77,-0.59 -1.25,-0.55c-0.57,-0.02 -1.11,0.24 -1.45,0.69c-0.38,0.56 -0.57,1.24 -0.53,1.92v3.74h-1.36v-7.33h1.25v1.37c0.47,-0.97 1.49,-1.58 2.58,-1.53c0.73,-0.04 1.43,0.26 1.89,0.81c0.48,0.67 0.7,1.48 0.64,2.29zM160.67,97.29c-0.65,-0.04 -1.31,0.1 -1.89,0.39c-0.42,0.21 -0.67,0.64 -0.66,1.11c-0.01,0.34 0.13,0.67 0.38,0.9c0.26,0.24 0.61,0.37 0.97,0.36c0.57,0.02 1.12,-0.19 1.51,-0.6c0.4,-0.44 0.61,-1.02 0.57,-1.62v-0.55zM162.86,96.48v4.46h-1.22v-1.22c-0.26,0.42 -0.63,0.76 -1.06,1c-0.46,0.23 -0.96,0.34 -1.47,0.33c-0.63,0.03 -1.24,-0.19 -1.71,-0.6c-0.47,-0.47 -0.7,-1.12 -0.63,-1.78c0.06,-0.66 0.42,-1.25 0.97,-1.62c0.87,-0.47 1.86,-0.7 2.85,-0.64h0.96v-0.14c0.05,-0.49 -0.13,-0.98 -0.49,-1.33c-0.35,-0.35 -0.85,-0.53 -1.34,-0.48c-0.34,0 -0.68,0.05 -1,0.15c-0.37,0.11 -0.73,0.26 -1.06,0.46v-1.12c0.37,-0.18 0.76,-0.31 1.17,-0.4c0.43,-0.09 0.87,-0.13 1.31,-0.13c0.77,-0.06 1.53,0.22 2.07,0.76c0.5,0.65 0.75,1.47 0.69,2.29zM170.12,93.79l-0.06,1.11c-0.29,-0.14 -0.6,-0.24 -0.92,-0.31c-0.31,-0.07 -0.63,-0.11 -0.95,-0.11c-0.32,-0.01 -0.63,0.07 -0.91,0.23c-0.21,0.13 -0.34,0.36 -0.33,0.61c0,0.23 0.1,0.45 0.28,0.6c0.35,0.27 0.74,0.5 1.15,0.66c0.61,0.24 1.16,0.59 1.63,1.04c0.29,0.34 0.45,0.77 0.44,1.22c0.03,0.64 -0.28,1.26 -0.82,1.62c-0.65,0.42 -1.41,0.63 -2.19,0.59c-0.33,0 -0.67,-0.03 -1,-0.1c-0.33,-0.06 -0.65,-0.15 -0.96,-0.27v-1.14c0.32,0.16 0.66,0.28 1,0.37c0.31,0.08 0.64,0.12 0.96,0.13c0.38,0.02 0.76,-0.08 1.08,-0.29c0.27,-0.18 0.42,-0.49 0.4,-0.81c0,-0.23 -0.08,-0.45 -0.24,-0.62c-0.33,-0.29 -0.71,-0.52 -1.11,-0.69c-0.61,-0.25 -1.16,-0.6 -1.63,-1.05c-0.28,-0.31 -0.44,-0.72 -0.43,-1.14c-0.01,-0.56 0.26,-1.08 0.73,-1.39c0.58,-0.38 1.27,-0.57 1.96,-0.53c0.31,0 0.61,0.03 0.91,0.07c0.31,0.04 0.63,0.11 0.93,0.2zM165.82,90.1h0.82l1.3,1.76l1.29,-1.76h0.82l-1.52,2.51h-1.3zM172.99,93.61h1.36v7.33h-1.36zM175.51,90.1l-2.05,2.53h-0.78l1.47,-2.53zM188.97,95.04c0.24,-0.48 0.6,-0.89 1.05,-1.19c0.44,-0.28 0.94,-0.42 1.46,-0.4c0.69,-0.04 1.35,0.27 1.76,0.81c0.45,0.68 0.67,1.48 0.61,2.29v4.43h-1.37v-4.12c0.04,-0.56 -0.09,-1.12 -0.35,-1.62c-0.24,-0.36 -0.65,-0.56 -1.08,-0.53c-0.55,-0.03 -1.08,0.23 -1.4,0.67c-0.37,0.56 -0.54,1.22 -0.51,1.89v3.74h-1.36v-4.12c0.04,-0.58 -0.08,-1.15 -0.35,-1.67c-0.26,-0.35 -0.69,-0.54 -1.13,-0.51c-0.53,-0.01 -1.03,0.25 -1.33,0.69c-0.37,0.55 -0.54,1.21 -0.51,1.87v3.74h-1.37v-7.33h1.26v1.29c0.23,-0.46 0.58,-0.85 1.02,-1.12c0.42,-0.27 0.92,-0.4 1.42,-0.39c0.48,-0.02 0.94,0.13 1.33,0.4c0.39,0.31 0.67,0.72 0.82,1.19zM202.97,97.04v0.56h-5.24c0.01,0.68 0.28,1.33 0.76,1.83c0.5,0.45 1.17,0.68 1.84,0.65c0.34,0 0.68,-0.04 1.01,-0.13c0.36,-0.1 0.71,-0.24 1.04,-0.41v1.17c-0.34,0.14 -0.7,0.25 -1.07,0.31c-0.42,0.07 -0.85,0.11 -1.27,0.11c-1,0.05 -1.97,-0.33 -2.66,-1.05c-0.68,-0.79 -1.03,-1.82 -0.97,-2.86c-0.05,-1 0.29,-1.98 0.96,-2.74c0.64,-0.69 1.55,-1.06 2.49,-1.04c0.87,-0.04 1.72,0.31 2.29,0.96c0.58,0.76 0.87,1.7 0.82,2.65zM201.69,96.69c-0.01,-0.61 -0.21,-1.2 -0.57,-1.69c-0.33,-0.39 -0.82,-0.61 -1.33,-0.59c-0.53,-0.01 -1.03,0.22 -1.37,0.61c-0.39,0.48 -0.61,1.06 -0.64,1.67zM207.35,91.33v2.27h1.77v1.04h-1.77v3.8c-0.04,0.42 0.05,0.84 0.25,1.21c0.19,0.25 0.5,0.39 0.82,0.36c0.11,0 0.22,-0.02 0.33,-0.04c0.12,0 0.26,-0.07 0.42,-0.13v1.07c-0.18,0.05 -0.37,0.09 -0.55,0.11c-0.19,0.01 -0.38,0.01 -0.56,0c-0.6,0.06 -1.2,-0.15 -1.63,-0.57c-0.38,-0.57 -0.55,-1.25 -0.49,-1.93v-3.93h-1.49v-1.04h1.62v-1.81l1.32,-0.46zM215.59,93.52l-0.04,1.3l-0.3,-0.07h-0.28c-0.56,-0.03 -1.11,0.22 -1.45,0.66c-0.37,0.55 -0.55,1.21 -0.51,1.88v3.67h-1.37v-7.33h1.24v1.51c0.15,-0.47 0.44,-0.9 0.82,-1.22c0.37,-0.28 0.82,-0.43 1.28,-0.42h0.57zM220.91,94.47c-0.62,-0.02 -1.22,0.27 -1.59,0.76c-0.82,1.23 -0.82,2.82 0,4.05c0.39,0.48 0.98,0.76 1.6,0.76c0.62,0 1.21,-0.28 1.6,-0.76c0.8,-1.23 0.8,-2.81 0,-4.05c-0.39,-0.5 -1,-0.78 -1.63,-0.75zM220.92,93.43c0,0 0,0 0,0c0,0 0,0 0,0zM220.91,93.43c1,-0.05 1.98,0.32 2.68,1.03c1.31,1.65 1.31,3.98 0,5.62c-1.51,1.38 -3.84,1.38 -5.35,0c-1.31,-1.65 -1.31,-3.97 0,-5.62c0.7,-0.71 1.67,-1.08 2.67,-1.03zM228.66,99.73c0.01,0.01 0.01,0.02 0.02,0.03v0zM228.68,99.76v4.24h-1.4v-10.41h1.24v1.42c0.26,-0.48 0.63,-0.89 1.09,-1.19c0.46,-0.27 0.98,-0.41 1.52,-0.4c0.85,-0.02 1.67,0.35 2.2,1.01c0.58,0.77 0.87,1.72 0.82,2.69c0.06,1.02 -0.23,2.03 -0.82,2.86c-0.54,0.69 -1.38,1.09 -2.26,1.06c-0.49,0.01 -0.97,-0.1 -1.4,-0.32c-0.41,-0.22 -0.76,-0.55 -1,-0.94zM232.76,97.22c0.04,-0.7 -0.14,-1.39 -0.52,-1.97c-0.33,-0.47 -0.88,-0.74 -1.45,-0.72c-0.6,-0.02 -1.17,0.26 -1.53,0.74c-0.42,0.57 -0.62,1.26 -0.58,1.97c-0.04,0.71 0.15,1.42 0.55,2.01c0.35,0.47 0.9,0.74 1.49,0.74c0.59,0 1.14,-0.28 1.49,-0.74c0.4,-0.6 0.59,-1.31 0.55,-2.03zM240.05,94.47c-0.64,-0.03 -1.25,0.26 -1.63,0.76c-0.82,1.23 -0.82,2.82 0,4.05c0.39,0.48 0.98,0.76 1.6,0.76c0.62,0 1.21,-0.28 1.6,-0.76c0.8,-1.23 0.8,-2.81 0,-4.05c-0.39,-0.5 -1,-0.78 -1.63,-0.75zM240.06,93.43c0,0 0,0 0,0c0,0 0,0 0,0zM240.05,93.43c1,-0.05 1.98,0.32 2.68,1.03c1.31,1.65 1.31,3.98 0,5.62c-1.51,1.38 -3.84,1.38 -5.35,0c-1.31,-1.65 -1.31,-3.97 0,-5.62c0.7,-0.71 1.67,-1.08 2.67,-1.03zM246.37,90.02h1.37v10.92h-1.37zM256.98,97.04v0.56h-5.22c0.01,0.68 0.28,1.34 0.76,1.83c0.5,0.45 1.16,0.69 1.84,0.65c0.34,0 0.68,-0.04 1.01,-0.13c0.36,-0.1 0.71,-0.24 1.04,-0.41v1.17c-0.34,0.14 -0.7,0.25 -1.07,0.31c-0.42,0.07 -0.85,0.11 -1.27,0.11c-1,0.05 -1.97,-0.33 -2.65,-1.05c-0.69,-0.79 -1.04,-1.82 -0.98,-2.86c-0.05,-1 0.29,-1.98 0.96,-2.74c0.64,-0.69 1.55,-1.07 2.5,-1.04c0.87,-0.04 1.71,0.31 2.29,0.96c0.59,0.75 0.88,1.69 0.82,2.65zM255.69,96.69c0,-0.61 -0.2,-1.2 -0.57,-1.69c-0.33,-0.39 -0.82,-0.61 -1.33,-0.59c-0.52,-0.01 -1.02,0.22 -1.36,0.61c-0.39,0.47 -0.62,1.06 -0.65,1.67z"/>
	</g>
</svg>