<svg xmlns="http://www.w3.org/2000/svg" fill="none" viewBox="0 0 64 64">
  <path fill="#fff" d="M64 0H0v64h64V0Z"/>
  <path fill="#C82128" d="M22.535 26.13h-5.883v15.83h-4.96V26.13H5.866v-4.202h16.67v4.202Zm1.508 1.597c0-4.086 3.158-5.982 7.336-6.15V0H0v64h31.379V42.407c-4.766-.277-7.847-2.604-7.952-6.752h4.987c.224 2.018 1.54 2.859 3.922 2.859 1.625 0 3.222-.59 3.222-2.102 0-1.596-1.625-1.933-4.37-2.606-3.475-.812-7.145-1.877-7.145-6.079Z"/>
  <path fill="#888B8D" d="M59.355 41.96h-5.617l-6.191-9.428v9.428h-4.955V21.944h4.955v9.49l6.191-9.43h5.617l-6.817 9.979 6.817 9.977ZM32.623 0v21.579c4.037.181 7.091 2.15 7.278 6.148h-4.847c-.196-1.54-1.373-2.409-3.222-2.409-1.737 0-2.886.756-2.886 1.877 0 1.4 1.541 1.737 4.54 2.41 3.725.868 7.087 2.017 7.087 6.303 0 4.124-3.453 6.438-7.95 6.524V64H64V0H32.623Z"/>
</svg>
